<svg width="63" height="85" viewBox="0 0 63 85" fill="none" xmlns="http://www.w3.org/2000/svg">
<path d="M35.7394 39.7038C35.7394 39.7038 38.0789 39.553 40.1445 38.7558C42.2102 37.9586 49.352 34.7858 50.3727 34.3592C51.3935 33.9326 53.1181 34.1155 53.9628 34.1155C54.8075 34.1155 55.9338 33.6889 57.4473 34.3897C58.9608 35.0905 59.8055 34.8163 59.8055 36.3702C59.8055 37.9242 60.0167 39.722 58.5384 40.2704C57.0601 40.8189 51.1471 43.5916 49.1056 44.201C47.0642 44.8104 42.2071 44.6581 41.3976 44.4143C40.588 44.1706 39.7433 43.1346 38.617 42.9213C37.4907 42.708 35.4141 42.251 35.0973 42.0377C34.7805 41.8244 34.2878 40.7884 34.2878 40.7884L35.7394 39.7038Z" fill="url(#paint0_linear)"/>
<path d="M29.4814 38.6533C29.4814 38.6533 22.3013 34.6922 21.3862 34.5093C20.471 34.3265 18.3593 33.4734 16.9514 33.4734C15.5435 33.4734 14.6636 33.382 13.0797 34.0218C11.4959 34.6617 11.1087 35.0274 9.77123 35.5454C8.43376 36.0634 7.97622 35.7586 6.39234 36.9774C4.8085 38.1962 4.35093 38.6533 4.70289 39.5979C5.05486 40.5424 4.42133 40.8472 5.93479 41.6698C7.44825 42.4925 9.94721 43.1933 11.7071 43.4066C13.4669 43.6199 14.3116 44.1684 15.2619 44.2293C16.2122 44.2903 15.4027 44.6863 18.1833 44.3207C20.9638 43.955 22.7236 43.8636 24.3075 43.498C25.8914 43.1323 26.8417 42.7972 28.3551 42.2182C29.8686 41.6393 30.2206 41.3041 30.4317 40.7861C30.6429 40.2681 30.8893 39.8416 30.5022 39.415C30.115 38.9884 29.4814 38.6532 29.4814 38.6532V38.6533Z" fill="url(#paint1_linear)"/>
<path d="M18.59 44.658C18.59 44.658 16.8245 45.5857 15.7544 46.3829C14.6842 47.1801 13.0914 47.7834 12.295 49.4424C11.4985 51.1014 11.0755 51.7693 11.3741 52.9112C11.6727 54.0531 11.2248 54.5271 12.3696 55.1304C13.5145 55.7337 13.4895 56.143 15.3561 55.8629C17.2227 55.5828 20.3586 54.7857 22.9967 53.6222C25.6349 52.4587 26.9041 52.0925 27.5263 51.3384C28.1485 50.5843 27.8748 50.929 28.7459 48.9468C29.6169 46.9646 30.5129 45.9089 31.2595 45.0471C32.0062 44.1853 33.0382 43.2869 33.2495 42.6318C33.4606 41.9767 33.8478 41.8395 32.9679 41.6263C32.088 41.413 30.5393 41.6567 30.5393 41.6567C30.5393 41.6567 29.1666 42.2966 28.4099 42.6165C27.6532 42.9364 26.1573 43.4392 25.5061 43.5611C24.855 43.683 20.4378 44.399 19.8043 44.46C19.1707 44.5209 18.59 44.658 18.59 44.658Z" fill="url(#paint2_linear)"/>
<path d="M32.8459 43.6285C32.8459 43.6285 32.8106 44.573 32.23 45.7613C31.6492 46.9497 31.5964 46.9801 31.4029 48.0466C31.2093 49.113 31.0107 50.8213 31.9066 53.1052C32.8026 55.389 33.3501 56.2939 35.7891 57.759C38.2281 59.2241 40.1196 60.8185 41.8618 60.603C43.6039 60.3876 44.6741 60.0212 45.0225 59.5688C45.371 59.1163 45.9932 57.8667 46.0181 57.2635C46.043 56.6602 45.7941 54.0101 44.9479 52.545C44.1017 51.0799 44.5248 50.3473 44.5994 49.9595C44.6741 49.5717 43.3799 46.9647 42.6084 46.0597C41.8369 45.1548 39.5721 43.7544 38.5268 43.4528C37.4815 43.1511 35.8264 43.0541 35.2913 42.3324C34.7563 41.6106 34.4576 40.7487 34.2087 40.8349C33.9599 40.9211 33.7856 41.8691 33.6114 42.2569C33.4372 42.6448 32.8459 43.6285 32.8459 43.6285Z" fill="url(#paint3_linear)"/>
<path d="M37.2327 39.4667C37.2327 39.4667 42.1853 37.4092 42.708 36.8813C43.2306 36.3534 45.6696 34.6406 46.1176 33.6279C46.5656 32.6153 46.4909 31.9043 47.1629 30.6762C47.8349 29.4481 48.9051 28.7586 49.0046 26.8842C49.1042 25.0097 49.3779 25.0958 48.706 23.523C48.034 21.9502 47.7353 20.8945 46.3914 20.636C45.0474 20.3774 44.3257 20.0326 43.0067 20.5281C41.6876 21.0237 41.364 22.0794 40.3436 22.3595C39.3232 22.6396 37.9544 22.5104 37.0086 24.1047C36.0629 25.6991 35.0923 26.3023 34.4701 28.2199C33.8479 30.1375 33.4995 35.4808 33.4995 35.4808C33.4995 35.4808 33.2506 37.6353 33.3003 38.1955C33.3501 38.7557 35.7394 39.7037 35.7394 39.7037L37.2327 39.4667Z" fill="url(#paint4_linear)"/>
<path d="M20.3147 19.0327C20.3147 19.0327 19.47 19.2765 18.8364 19.764C18.2028 20.2515 17.8157 20.4039 17.5693 21.1656C17.3229 21.9274 17.534 22.6891 17.9565 24.7002C18.3788 26.7112 18.6252 27.9909 19.6459 29.3316C20.6666 30.6723 20.4554 32.1044 22.884 33.5974C25.3126 35.0904 30.381 39.2648 31.1553 39.0516C31.9296 38.8383 32.5984 38.7774 32.8447 37.4671C33.0911 36.1569 32.8447 32.4395 32.8447 32.4395C32.8447 32.4395 33.0207 31.434 32.6336 29.6972C32.2464 27.9604 30.7681 25.2791 28.4451 22.6587C26.1221 20.0383 25.735 19.6726 24.0103 19.1851C22.2857 18.6976 20.3147 19.0327 20.3147 19.0327Z" fill="url(#paint5_linear)"/>
<path d="M32.7946 42.1102C34.1437 42.1102 35.2374 41.226 35.2374 40.1352C35.2374 39.0445 34.1437 38.1602 32.7946 38.1602C31.4455 38.1602 30.3518 39.0445 30.3518 40.1352C30.3518 41.226 31.4455 42.1102 32.7946 42.1102Z" stroke="#62B15B" stroke-width="0.264583"/>
<path fill-rule="evenodd" clip-rule="evenodd" d="M31.8615 41.6655C31.3584 41.4661 31.3309 41.4266 31.6873 41.4148C32.3613 41.3925 33.3547 41.6023 33.3547 41.767C33.3547 41.9908 32.5429 41.9357 31.8615 41.6655Z" fill="#FF638D"/>
<path fill-rule="evenodd" clip-rule="evenodd" d="M33.5732 41.6903C33.5006 41.6252 33.3206 41.5482 33.1168 41.4952C32.7479 41.3992 32.4545 41.3728 31.8596 41.382C31.469 41.3879 31.4297 41.3867 31.5154 41.3688C31.8684 41.2959 32.3047 41.31 32.8793 41.4128C33.2161 41.473 33.5127 41.4811 33.6078 41.4327C33.6975 41.387 33.7319 41.3363 33.7529 41.219C33.7759 41.0896 33.7981 41.0503 33.9217 40.9187C34.0263 40.8072 34.1677 40.6953 34.4015 40.5391C34.5744 40.4235 34.7663 40.2527 34.8299 40.1578C35.0699 39.7993 34.854 39.4691 34.0672 38.9918C33.7914 38.8245 33.4619 38.6478 33.2409 38.5487C33.0884 38.4804 33.0458 38.4676 32.9919 38.4738C32.8959 38.4845 32.4749 38.6347 32.0394 38.8125C31.5423 39.0155 31.3331 39.116 31.2297 39.2017C31.1535 39.2649 31.1458 39.2777 31.1458 39.3411C31.1458 39.4006 31.1609 39.4306 31.2489 39.5458C31.3852 39.724 31.4056 39.7605 31.446 39.8973C31.53 40.1821 31.46 40.6221 31.2576 41.0803C31.1855 41.2436 31.1654 41.3491 31.2013 41.375C31.215 41.3844 31.2611 41.3952 31.3045 41.3985C31.3806 41.4044 31.3801 41.4044 31.2857 41.4067C31.1933 41.4091 31.1843 41.4061 31.1191 41.3482C31.0524 41.289 31.0509 41.2855 31.0734 41.2377C31.163 41.0467 31.3456 40.5975 31.3846 40.4718C31.4228 40.3491 31.432 40.285 31.433 40.1372C31.433 39.9714 31.4289 39.9423 31.3814 39.8242C31.3522 39.7526 31.2995 39.6562 31.2639 39.6101C31.1973 39.5233 30.9758 39.3051 30.9046 39.2563C30.8524 39.2206 30.8533 39.2116 30.9182 39.1306C30.9694 39.0662 30.9758 39.0632 31.0583 39.0632C31.1753 39.0632 31.6695 38.9288 31.894 38.8359C32.1669 38.723 32.3639 38.5775 32.498 38.3897C32.5352 38.3376 32.5417 38.335 32.6668 38.3248C32.8044 38.3142 33.1356 38.3366 33.2862 38.3668C33.3644 38.3827 33.3877 38.3973 33.4654 38.4785C33.6222 38.6424 34.012 38.895 34.4722 39.1312C34.8098 39.3044 34.7982 39.2962 34.8583 39.4064C34.9772 39.6242 35.0378 39.844 35.0417 40.0716L35.0458 40.2117L34.6984 40.4718C34.2294 40.8229 34.2737 40.7742 34.3265 40.8816C34.3506 40.9307 34.3672 40.9735 34.3635 40.9768C34.3594 40.9803 34.3311 40.9517 34.2996 40.914C34.2427 40.8454 34.1676 40.8 34.1113 40.8C34.058 40.8 33.9526 40.9147 33.894 41.0368C33.8626 41.1016 33.7944 41.2851 33.742 41.4445C33.6897 41.6039 33.6442 41.7365 33.6412 41.7392C33.6371 41.7416 33.6084 41.7197 33.5753 41.69L33.5732 41.6903Z" fill="#FF638D"/>
<path fill-rule="evenodd" clip-rule="evenodd" d="M30.9922 41.2226C30.8801 41.1159 30.7134 40.8541 30.642 40.6725C30.5162 40.353 30.5143 39.9406 30.6365 39.6099C30.6778 39.4985 30.8254 39.2311 30.8457 39.2311C30.8659 39.2311 31.1107 39.4564 31.1939 39.5518C31.3343 39.7128 31.4261 39.9383 31.4268 40.1242C31.4268 40.2574 31.3765 40.4619 31.2839 40.6998C31.1765 40.9759 31.0603 41.2389 31.0414 41.249C31.0332 41.2526 31.0114 41.2408 30.992 41.2226H30.9922Z" fill="#FF638D"/>
<path fill-rule="evenodd" clip-rule="evenodd" d="M31.005 39.0353C31.005 39.0063 31.3408 38.7443 31.4822 38.6631C31.7747 38.4949 32.0634 38.4001 32.4619 38.3413L32.5197 38.333L32.4638 38.4052C32.3246 38.5849 32.1158 38.7332 31.8556 38.8372C31.5629 38.9543 31.005 39.0844 31.005 39.0355L31.005 39.0353Z" fill="#FF638D"/>
<path fill-rule="evenodd" clip-rule="evenodd" d="M34.4973 39.128C34.2105 38.9789 33.975 38.8423 33.7944 38.7204C33.6514 38.6239 33.4047 38.4132 33.4196 38.4003C33.4354 38.3864 33.6569 38.4574 33.8481 38.5376C34.161 38.669 34.4494 38.8725 34.6399 39.0965C34.7352 39.2086 34.7604 39.2464 34.74 39.2464C34.7318 39.2464 34.6227 39.1931 34.4974 39.128H34.4973Z" fill="#FF638D"/>
<path fill-rule="evenodd" clip-rule="evenodd" d="M32.5185 41.936C32.5041 41.9324 32.4327 41.9221 32.3601 41.912C32.0105 41.8632 31.6086 41.7056 31.3174 41.503L31.2162 41.4326L31.2998 41.4219C31.4156 41.408 31.5568 41.4087 31.4978 41.4229C31.3767 41.4521 31.4924 41.5282 31.8904 41.681C32.5912 41.9503 33.425 41.9899 33.3556 41.7506C33.3134 41.605 32.5872 41.4364 31.885 41.4091C31.6074 41.3985 31.6265 41.3973 32.0786 41.4008C32.6256 41.4055 32.7464 41.4173 33.0817 41.5014C33.3207 41.5613 33.5044 41.6401 33.5843 41.7167C33.6189 41.75 33.6493 41.7749 33.6515 41.7721C33.6555 41.7697 33.6965 41.6377 33.7469 41.4799C33.9234 40.9266 34.0453 40.7497 34.1875 40.8407C34.2574 40.8854 34.3471 40.9943 34.4442 41.152L34.5308 41.2927L34.3882 41.4098C34.0911 41.6539 33.7091 41.824 33.2752 41.9052C33.1551 41.9278 32.5904 41.95 32.5185 41.935V41.936Z" fill="#FF638D"/>
<path fill-rule="evenodd" clip-rule="evenodd" d="M34.4294 41.0493C34.3647 40.9265 34.3141 40.8139 34.3171 40.7991C34.3212 40.7842 34.4808 40.6538 34.6744 40.5093C35.0117 40.2574 35.0266 40.2483 35.0321 40.2893C35.0479 40.4061 34.9489 40.7091 34.8287 40.9114C34.7629 41.0222 34.5713 41.2726 34.5523 41.2726C34.5482 41.2726 34.4941 41.1721 34.4294 41.0493H34.4294Z" fill="#FF638D"/>
<path d="M32.8162 42.5889C34.3017 42.5889 35.5058 41.5465 35.5058 40.2605C35.5058 38.9746 34.3017 37.9321 32.8162 37.9321C31.3308 37.9321 30.1266 38.9746 30.1266 40.2605C30.1266 41.5465 31.3308 42.5889 32.8162 42.5889Z" fill="url(#paint6_radial)"/>
<defs>
<linearGradient id="paint0_linear" x1="34.2878" y1="39.3075" x2="59.8159" y2="39.3075" gradientUnits="userSpaceOnUse">
<stop stop-color="#34B343"/>
<stop offset="1" stop-color="#34B343" stop-opacity="0"/>
</linearGradient>
<linearGradient id="paint1_linear" x1="4.59118" y1="38.9714" x2="30.7058" y2="38.9714" gradientUnits="userSpaceOnUse">
<stop stop-color="#34B343"/>
<stop offset="1" stop-color="#34B343" stop-opacity="0"/>
</linearGradient>
<linearGradient id="paint2_linear" x1="11.2781" y1="48.7459" x2="33.5188" y2="48.7459" gradientUnits="userSpaceOnUse">
<stop stop-color="#34B343"/>
<stop offset="1" stop-color="#34B343" stop-opacity="0"/>
</linearGradient>
<linearGradient id="paint3_linear" x1="38.8986" y1="56.4195" x2="34.0135" y2="37.9382" gradientUnits="userSpaceOnUse">
<stop stop-color="#34B343"/>
<stop offset="1" stop-color="#34B343" stop-opacity="0"/>
</linearGradient>
<linearGradient id="paint4_linear" x1="33.2938" y1="29.99" x2="49.1447" y2="29.99" gradientUnits="userSpaceOnUse">
<stop stop-color="#34B343"/>
<stop offset="1" stop-color="#34B343" stop-opacity="0"/>
</linearGradient>
<linearGradient id="paint5_linear" x1="17.4643" y1="28.9899" x2="32.9542" y2="28.9899" gradientUnits="userSpaceOnUse">
<stop stop-color="#34B343"/>
<stop offset="1" stop-color="#34B343" stop-opacity="0"/>
</linearGradient>
<radialGradient id="paint6_radial" cx="0" cy="0" r="1" gradientUnits="userSpaceOnUse" gradientTransform="translate(33.6147 38.2899) rotate(87.8048) scale(6.27298 5.77785)">
<stop stop-color="white"/>
<stop offset="1" stop-color="#7DFF8C"/>
</radialGradient>
</defs>
</svg>
